<svg width="292" height="301" viewBox="0 0 292 301" fill="none" xmlns="http://www.w3.org/2000/svg">
<path d="M146 300C105.782 300 72.3538 294.209 47.6779 287.803C26.8161 282.387 16.3852 279.678 10.5511 266.301C4.71697 252.924 9.81566 243.463 20.013 224.54C29.299 207.308 41.4599 189.732 55.7313 180.534C59.2521 178.265 61.0124 177.13 69.6165 177.011C78.2206 176.892 83.3896 180.024 93.7275 186.289C107.399 194.574 127.105 204 146 204C164.895 204 184.601 194.574 198.272 186.289C208.61 180.024 213.779 176.892 222.383 177.011C230.988 177.13 232.748 178.265 236.269 180.534C250.54 189.732 262.701 207.308 271.987 224.54C282.184 243.463 287.283 252.924 281.449 266.301C275.615 279.678 265.184 282.387 244.322 287.803C219.646 294.209 186.218 300 146 300Z" fill="black" stroke="black"/>
<path d="M217.5 123.5C217.5 162.712 185.712 194.5 146.5 194.5C107.288 194.5 75.5 162.712 75.5 123.5C75.5 107.145 78.1916 97.8104 82.5379 92.918C86.8379 88.0777 92.8739 87.4725 99.962 88.9273C105.802 90.126 112.241 92.6991 118.834 95.3338C120.258 95.9027 121.689 96.4745 123.122 97.0359C131.153 100.181 139.268 103 146.5 103C153.732 103 161.847 100.181 169.878 97.0359C171.311 96.4745 172.742 95.9027 174.166 95.3338C180.759 92.6991 187.198 90.126 193.038 88.9273C200.126 87.4725 206.162 88.0777 210.462 92.918C214.808 97.8104 217.5 107.145 217.5 123.5Z" fill="black" stroke="black"/>
<mask id="path-3-inside-1_26_29" fill="white">
<path fill-rule="evenodd" clip-rule="evenodd" d="M266.954 38.3761L149.765 0.485009C147.765 -0.161669 145.612 -0.16167 143.612 0.485009L26.4235 38.3761C17.1628 41.3704 17.2025 54.4862 26.4811 57.4245L143.67 94.5343C145.634 95.1564 147.743 95.1564 149.708 94.5343L250.76 62.5343C251.919 62.1675 252.498 61.9841 252.904 62.2724C253.31 62.5607 253.328 63.1679 253.363 64.3823L254.302 96.3492C254.327 97.2032 254.339 97.6302 254.108 97.9174C253.878 98.2046 253.433 98.2895 252.543 98.4592C245.852 99.7348 241 103.524 241 108C241 109.762 241.752 111.418 243.073 112.856C243.766 113.611 244.113 113.989 244.145 114.322C244.178 114.655 243.923 115.07 243.415 115.901C241.883 118.405 241 121.349 241 124.5C241 133.613 248.387 141 257.5 141C266.613 141 274 133.613 274 124.5C274 121.349 273.117 118.405 271.585 115.901C271.077 115.07 270.823 114.655 270.855 114.322C270.887 113.989 271.234 113.611 271.927 112.856C273.248 111.418 274 109.762 274 108C274 103.663 269.444 99.9707 263.075 98.5852C262.203 98.3956 261.768 98.3009 261.545 98.014C261.323 97.7271 261.338 97.3075 261.369 96.4684L262.701 60.1447C262.726 59.4642 262.739 59.124 262.931 58.8718C263.122 58.6196 263.447 58.5169 264.096 58.3113L266.897 57.4245C276.175 54.4862 276.215 41.3704 266.954 38.3761ZM162 48C162 54.6274 155.284 60 147 60C138.716 60 132 54.6274 132 48C132 41.3726 138.716 36 147 36C155.284 36 162 41.3726 162 48Z"/>
</mask>
<path fill-rule="evenodd" clip-rule="evenodd" d="M266.954 38.3761L149.765 0.485009C147.765 -0.161669 145.612 -0.16167 143.612 0.485009L26.4235 38.3761C17.1628 41.3704 17.2025 54.4862 26.4811 57.4245L143.67 94.5343C145.634 95.1564 147.743 95.1564 149.708 94.5343L250.76 62.5343C251.919 62.1675 252.498 61.9841 252.904 62.2724C253.31 62.5607 253.328 63.1679 253.363 64.3823L254.302 96.3492C254.327 97.2032 254.339 97.6302 254.108 97.9174C253.878 98.2046 253.433 98.2895 252.543 98.4592C245.852 99.7348 241 103.524 241 108C241 109.762 241.752 111.418 243.073 112.856C243.766 113.611 244.113 113.989 244.145 114.322C244.178 114.655 243.923 115.07 243.415 115.901C241.883 118.405 241 121.349 241 124.5C241 133.613 248.387 141 257.5 141C266.613 141 274 133.613 274 124.5C274 121.349 273.117 118.405 271.585 115.901C271.077 115.07 270.823 114.655 270.855 114.322C270.887 113.989 271.234 113.611 271.927 112.856C273.248 111.418 274 109.762 274 108C274 103.663 269.444 99.9707 263.075 98.5852C262.203 98.3956 261.768 98.3009 261.545 98.014C261.323 97.7271 261.338 97.3075 261.369 96.4684L262.701 60.1447C262.726 59.4642 262.739 59.124 262.931 58.8718C263.122 58.6196 263.447 58.5169 264.096 58.3113L266.897 57.4245C276.175 54.4862 276.215 41.3704 266.954 38.3761ZM162 48C162 54.6274 155.284 60 147 60C138.716 60 132 54.6274 132 48C132 41.3726 138.716 36 147 36C155.284 36 162 41.3726 162 48Z" fill="black"/>
<path d="M149.765 0.485009L149.458 1.43651L149.458 1.43651L149.765 0.485009ZM266.954 38.3761L266.647 39.3276L266.647 39.3276L266.954 38.3761ZM143.612 0.485009L143.305 -0.466491L143.305 -0.466491L143.612 0.485009ZM26.4235 38.3761L26.1158 37.4246L26.1158 37.4246L26.4235 38.3761ZM26.4811 57.4245L26.783 56.4711L26.783 56.4711L26.4811 57.4245ZM143.67 94.5343L143.972 93.5809L143.972 93.5809L143.67 94.5343ZM149.708 94.5343L149.406 93.5809L149.406 93.5809L149.708 94.5343ZM266.897 57.4245L267.199 58.3778L267.199 58.3778L266.897 57.4245ZM262.701 60.1447L263.701 60.1813L262.701 60.1447ZM264.096 58.3113L264.398 59.2647L264.096 58.3113ZM262.931 58.8718L263.726 59.4773L262.931 58.8718ZM263.075 98.5852L262.862 99.5623L263.075 98.5852ZM261.369 96.4684L262.368 96.5051L261.369 96.4684ZM261.545 98.014L262.335 97.4009L261.545 98.014ZM271.585 115.901L272.438 115.379L271.585 115.901ZM271.927 112.856L271.191 112.18L271.927 112.856ZM270.855 114.322L271.85 114.418L270.855 114.322ZM243.415 115.901L242.562 115.379L243.415 115.901ZM244.145 114.322L243.15 114.418L244.145 114.322ZM254.302 96.3492L255.301 96.3199L254.302 96.3492ZM252.543 98.4592L252.355 97.4769L252.543 98.4592ZM254.108 97.9174L253.329 97.2913L254.108 97.9174ZM250.76 62.5343L251.062 63.4876L250.76 62.5343ZM253.363 64.3823L252.364 64.4116L253.363 64.3823ZM252.904 62.2724L253.483 61.457L252.904 62.2724ZM149.458 1.43651L266.647 39.3276L267.262 37.4246L150.073 -0.466491L149.458 1.43651ZM143.92 1.43651C145.72 0.854497 147.658 0.854498 149.458 1.43651L150.073 -0.46649C147.873 -1.17784 145.505 -1.17784 143.305 -0.466491L143.92 1.43651ZM26.7311 39.3276L143.92 1.43651L143.305 -0.466491L26.1158 37.4246L26.7311 39.3276ZM26.783 56.4711C18.4322 53.8267 18.3965 42.0224 26.7311 39.3276L26.1158 37.4246C15.9291 40.7183 15.9727 55.1458 26.1792 58.3778L26.783 56.4711ZM143.972 93.5809L26.783 56.4711L26.1792 58.3778L143.368 95.4876L143.972 93.5809ZM149.406 93.5809C147.638 94.1409 145.74 94.1409 143.972 93.5809L143.368 95.4876C145.529 96.172 147.849 96.172 150.01 95.4876L149.406 93.5809ZM250.459 61.5809L149.406 93.5809L150.01 95.4876L251.062 63.4876L250.459 61.5809ZM255.301 96.3199L254.363 64.3529L252.364 64.4116L253.302 96.3785L255.301 96.3199ZM242 108C242 106.151 242.999 104.345 244.893 102.805C246.787 101.266 249.509 100.056 252.73 99.4415L252.355 97.4769C248.886 98.1385 245.836 99.4609 243.632 101.254C241.427 103.046 240 105.373 240 108H242ZM243.809 112.18C242.62 110.885 242 109.46 242 108H240C240 110.064 240.885 111.952 242.336 113.533L243.809 112.18ZM242 124.5C242 121.539 242.829 118.774 244.268 116.423L242.562 115.379C240.937 118.036 240 121.16 240 124.5H242ZM257.5 140C248.94 140 242 133.06 242 124.5H240C240 134.165 247.835 142 257.5 142V140ZM273 124.5C273 133.06 266.06 140 257.5 140V142C267.165 142 275 134.165 275 124.5H273ZM270.732 116.423C272.171 118.774 273 121.539 273 124.5H275C275 121.16 274.063 118.036 272.438 115.379L270.732 116.423ZM273 108C273 109.46 272.38 110.885 271.191 112.18L272.664 113.533C274.115 111.952 275 110.064 275 108H273ZM262.862 99.5623C265.925 100.229 268.496 101.439 270.28 102.949C272.062 104.458 273 106.208 273 108H275C275 105.455 273.66 103.19 271.572 101.423C269.485 99.6557 266.594 98.3272 263.287 97.608L262.862 99.5623ZM261.702 60.108L260.369 96.4317L262.368 96.5051L263.701 60.1813L261.702 60.108ZM266.595 56.4711L263.794 57.358L264.398 59.2647L267.199 58.3778L266.595 56.4711ZM266.647 39.3276C274.981 42.0224 274.945 53.8267 266.595 56.4711L267.199 58.3778C277.405 55.1458 277.449 40.7183 267.262 37.4246L266.647 39.3276ZM147 61C155.617 61 163 55.3764 163 48H161C161 53.8784 154.952 59 147 59V61ZM131 48C131 55.3764 138.383 61 147 61V59C139.048 59 133 53.8784 133 48H131ZM147 35C138.383 35 131 40.6236 131 48H133C133 42.1216 139.048 37 147 37V35ZM163 48C163 40.6236 155.617 35 147 35V37C154.952 37 161 42.1216 161 48H163ZM263.701 60.1813C263.714 59.8185 263.722 59.6291 263.742 59.4959C263.758 59.3878 263.769 59.4213 263.726 59.4773L262.135 58.2663C261.9 58.5745 261.809 58.9042 261.764 59.1994C261.724 59.4695 261.714 59.7904 261.702 60.108L263.701 60.1813ZM263.794 57.358C263.491 57.4539 263.185 57.5494 262.935 57.6605C262.662 57.7819 262.369 57.9582 262.135 58.2663L263.726 59.4773C263.684 59.5333 263.649 59.5321 263.748 59.4877C263.872 59.4329 264.052 59.3743 264.398 59.2647L263.794 57.358ZM263.287 97.608C262.828 97.5082 262.567 97.4498 262.388 97.389C262.221 97.3326 262.272 97.3197 262.335 97.4009L260.755 98.6271C261.041 98.9952 261.421 99.1731 261.746 99.2832C262.058 99.3888 262.45 99.4726 262.862 99.5623L263.287 97.608ZM260.369 96.4317C260.355 96.8266 260.339 97.2112 260.365 97.53C260.393 97.8705 260.476 98.2674 260.755 98.6271L262.335 97.4009C262.392 97.4737 262.371 97.5174 262.359 97.3666C262.344 97.1941 262.352 96.9494 262.368 96.5051L260.369 96.4317ZM272.438 115.379C272.173 114.947 272.012 114.681 271.914 114.482C271.811 114.274 271.862 114.297 271.85 114.418L269.86 114.225C269.815 114.68 269.977 115.077 270.12 115.367C270.268 115.667 270.488 116.024 270.732 116.423L272.438 115.379ZM271.191 112.18C270.857 112.543 270.561 112.864 270.351 113.137C270.152 113.395 269.905 113.763 269.86 114.225L271.85 114.418C271.838 114.548 271.78 114.56 271.936 114.357C272.08 114.17 272.304 113.924 272.664 113.533L271.191 112.18ZM242.336 113.533C242.696 113.924 242.92 114.17 243.064 114.357C243.22 114.56 243.162 114.548 243.15 114.418L245.14 114.225C245.096 113.763 244.848 113.395 244.649 113.137C244.439 112.864 244.143 112.543 243.809 112.18L242.336 113.533ZM244.268 116.423C244.512 116.024 244.732 115.667 244.88 115.367C245.023 115.077 245.185 114.68 245.14 114.225L243.15 114.418C243.138 114.297 243.189 114.274 243.086 114.482C242.988 114.681 242.827 114.947 242.562 115.379L244.268 116.423ZM253.302 96.3785C253.315 96.8305 253.321 97.0801 253.305 97.2557C253.291 97.4095 253.27 97.3644 253.329 97.2913L254.888 98.5435C255.178 98.1831 255.266 97.7809 255.297 97.4359C255.326 97.1128 255.313 96.7218 255.301 96.3199L253.302 96.3785ZM252.73 99.4415C253.151 99.3612 253.552 99.2864 253.87 99.1871C254.202 99.0836 254.592 98.9122 254.888 98.5435L253.329 97.2913C253.394 97.2099 253.446 97.2245 253.275 97.2776C253.091 97.335 252.824 97.3875 252.355 97.4769L252.73 99.4415ZM251.062 63.4876C251.672 63.2946 252.024 63.1857 252.276 63.1446C252.502 63.1075 252.433 63.1643 252.325 63.0878L253.483 61.457C252.969 61.0922 252.407 61.0965 251.953 61.1708C251.524 61.241 251.007 61.4072 250.459 61.5809L251.062 63.4876ZM254.363 64.3529C254.346 63.7776 254.333 63.2352 254.257 62.807C254.178 62.3539 253.997 61.8218 253.483 61.457L252.325 63.0878C252.217 63.0112 252.248 62.9269 252.288 63.1531C252.332 63.4041 252.345 63.7725 252.364 64.4116L254.363 64.3529Z" fill="black" mask="url(#path-3-inside-1_26_29)"/>
</svg>
